<svg preserveAspectRatio="xMidYMid meet" data-bbox="13.094 27.021 175.812 145.961" viewBox="13.094 27.021 175.812 145.961" height="200" width="200" xmlns="http://www.w3.org/2000/svg" data-type="color" role="presentation" aria-hidden="true" aria-labelledby="svgcid--tn83xe-5lvib3"><defs><style>#comp-kukyrmzn svg [data-color="1"] {fill: #FFC098;}
#comp-kukyrmzn svg [data-color="2"] {fill: #414581;}
#comp-kukyrmzn svg [data-color="3"] {fill: #FFF9F5;}</style></defs><title id="svgcid--tn83xe-5lvib3"></title>
    <g>
        <path d="M183.062 45.854c-11.97-20.206-34.63-24.84-58.7-8.938-29.483 19.478-36.005 49.059-22.546 68.305 13.341 19.077 32.279 22.975 57.099 8.271s36.117-47.432 24.147-67.638zm-41.523 32.285c-4.803 3.702-14.108 5.103-13.908 4.703.2-.4.634-2.501 4.936-9.605 4.302-7.104 15.309-9.906 15.309-9.906 1.701 2.301-1.535 11.106-6.337 14.808z" fill="#ffc098" data-color="1"></path>
        <path d="M131.205 124.236c-11.874 0-21.99-5.909-30.245-17.715-6.022-8.611-8.186-19.396-6.095-30.368 2.855-14.978 13.126-28.972 28.921-39.407 12.68-8.376 25.368-11.426 36.699-8.821 9.66 2.222 17.778 8.48 23.477 18.099 5.889 9.942 6.549 23.341 1.809 36.763-4.743 13.432-14.283 25.299-26.323 32.307-10.661 6.204-14.108 8.375-28.243 9.142zm21.198-95.124c-8.72 0-18.073 3.174-27.465 9.378-15.32 10.121-25.271 23.636-28.02 38.054-1.985 10.414.059 20.634 5.754 28.78 13.444 19.226 32.187 21.906 55.71 7.971 23.97-14.2 35.524-46.375 23.78-66.206-5.399-9.114-13.058-15.037-22.146-17.127a33.901 33.901 0 0 0-7.613-.85zm-24.13 55.573c-.594 0-1.045-.094-1.3-.303l-.643-.529.365-.776c.014-.034.037-.103.071-.198.33-.922 1.205-3.372 4.906-9.481 4.473-7.385 15.479-10.258 15.944-10.376l.681-.173.418.565c2.221 3.005-1.568 12.425-6.54 16.257-2.592 1.997-10.535 5.014-13.902 5.014zM147.266 65.3c-2.618.818-10.46 3.657-13.806 9.18-2.538 4.192-3.709 6.613-4.276 7.95 2.664-.423 8.376-1.842 11.717-4.417 4.185-3.226 6.741-10.225 6.365-12.713z" fill="#4d4f99" data-color="2"></path>
        <path d="M174.691 60.586c1.001-6.504 3.502-5.703 2.101-14.008-1.401-8.305-4.903-11.306-6.504-12.807s-10.606-6.504-23.213-4.402-20.211 7.504-27.215 12.607c-7.004 5.103-18.911 15.909-22.112 29.016-3.202 13.107-1.801 30.717 5.503 36.621 0 0 4.402 3.402 10.306 3.402s6.704-2.902 9.305-2.902 4.002.4 7.004 3.602 7.204 2.701 9.605 2.201c2.401-.5 7.004-5.603 7.604-11.707.6-6.103 7.704-9.105 12.307-9.705s8.705-.7 12.907-4.703c4.202-4.002 5.103-6.203 4.603-14.708-.5-8.505-3.202-6.003-2.201-12.507zm-29.917 14.608c-3.202 5.136-7.004 6.504-15.008 8.205-7.834 1.665-9.806-3.902-8.071-10.639 1.734-6.737 8.938-11.873 11.14-13.274 8.231-5.238 12.54-.934 13.808.734 2.615 3.441 1.333 9.838-1.869 14.974z" fill="#4d4f99" data-color="2"></path>
        <path d="M152.074 45.496a1.802 1.802 0 0 1-2.31 1.074l-6.579-2.403a1.802 1.802 0 0 1 1.236-3.384L151 43.186a1.802 1.802 0 0 1 1.074 2.31z" fill="#fff7f2" data-color="3"></path>
        <path d="M168.617 81.625a1.801 1.801 0 0 1-2.329 1.032l-6.535-2.521a1.801 1.801 0 0 1 1.297-3.361l6.535 2.521a1.802 1.802 0 0 1 1.032 2.329z" fill="#fff7f2" data-color="3"></path>
        <path d="M123.714 92.803a1.802 1.802 0 0 1 0 2.547l-4.953 4.953a1.802 1.802 0 0 1-2.547-2.547l4.953-4.953a1.8 1.8 0 0 1 2.547 0z" fill="#fff7f2" data-color="3"></path>
        <path d="M114.354 59.969a1.8 1.8 0 0 1 1.241 2.224l-1.911 6.738a1.8 1.8 0 1 1-3.465-.983l1.911-6.738a1.802 1.802 0 0 1 2.224-1.241z" fill="#fff7f2" data-color="3"></path>
        <path d="M99.047 147.24c17.846-15.267 18.513-38.386-1.292-59.362-24.258-25.694-54.52-27.03-71.165-10.461-16.498 16.423-17.08 35.75 1.673 57.67s52.939 27.421 70.784 12.153zm-38.946-35.351c-4.473-4.094-7.453-13.02-7.025-12.892.429.128 2.573.194 10.311 3.21 7.738 3.016 12.391 13.377 12.391 13.377-1.974 2.072-11.204.399-15.677-3.695z" fill="#ffc098" data-color="1"></path>
        <path d="M73.144 156.935c-3.033 0-6.153-.263-9.321-.795-14.047-2.362-27.297-9.788-36.353-20.373-18.61-21.753-19.154-41.634-1.617-59.091C33.3 69.262 43.54 65.253 54.721 65.449c15.245.236 30.798 7.947 43.794 21.712 10.433 11.05 15.621 23.026 15.001 34.635-.526 9.898-5.296 18.972-13.791 26.239-6.797 5.816-16.177 8.9-26.581 8.9zM54.025 67.533c-10.342 0-19.8 3.759-26.697 10.625-16.625 16.55-16.043 35.476 1.73 56.25 18.113 21.172 51.796 27.023 69.31 12.039 8.049-6.887 12.566-15.449 13.062-24.763.587-11.023-4.404-22.465-14.434-33.089C84.39 75.244 69.365 67.766 54.689 67.538a49.116 49.116 0 0 0-.664-.005zm18.422 49.979c-4.089 0-9.843-1.916-13.051-4.853-2.842-2.602-8.344-12.251-7.257-14.166l.411-.724.827.227c.035.008.107.019.208.036.965.166 3.528.607 10.184 3.202 8.044 3.135 12.768 13.483 12.965 13.922l.288.641-.485.508c-.793.831-2.279 1.207-4.09 1.207zm-11.64-6.393c3.897 3.566 11.232 4.885 13.62 4.083-1.256-2.438-5.402-9.675-11.418-12.02-4.566-1.78-7.153-2.517-8.567-2.845.875 2.551 3.254 7.934 6.365 10.782z" fill="#4d4f99" data-color="2"></path>
        <path d="M82.47 148.06c3.534-.148 5.849-2.014 7.523-4.621 1.62-2.523.523-6.276 4.165-7.654 3.204-1.212 7.197.416 9.792-.109 3.784-.765 5.632-3.489 6.322-4.593 1.163-1.861 4.33-11.663-.169-23.626s-11.27-18.379-17.631-24.264c-6.361-5.885-19.265-15.478-32.744-16.085s-30.486 4.172-34.866 12.48c0 0-1.877 4.89-1.345 10.769.516 5.706.37 6.897 3.592 12.401 1.315 2.245 5.622 8.723 1.499 11.878-5.563 4.257-15.416 21.293-.92 21.46 1.372.016 2.2-2.907 2.916-5.69.578-2.248 3.269-2.22 6.971-1.765 1.39.171 7.687 2.68 6.382 7.134-.802 2.74-3.97 15.049-2.024 16.486 5.8 4.282 7.889.307 10.441-3.759 1.556-2.478 3.648-4.362 5.863-3.413 3.265 1.399-2.238 9.074-4.184 16.019-1.593 5.685-.061 10.93 7.324 11.786 14.81 1.717 7.069-22.132 10.508-24.013 4.215-2.308 4.011-.545 10.585-.821zm-17.772-34.001c-5.658-2.148-7.735-5.614-10.952-13.139-3.148-7.365 1.933-10.375 8.878-9.976 6.945.399 13.377 6.474 15.177 8.363 6.731 7.063 3.341 12.123 1.95 13.689-2.871 3.232-9.395 3.211-15.053 1.063z" fill="#4d4f99" data-color="2"></path>
        <path d="M88.712 131.397a1.8 1.8 0 0 1-2.515-.402l-4.109-5.672a1.8 1.8 0 1 1 2.917-2.113l4.109 5.672a1.8 1.8 0 0 1-.402 2.515z" fill="#fff7f2" data-color="3"></path>
        <path d="M50.756 77.346a1.8 1.8 0 0 1 .775 2.426l-3.211 6.224a1.8 1.8 0 1 1-3.201-1.651l3.211-6.224a1.799 1.799 0 0 1 2.426-.775z" fill="#fff7f2" data-color="3"></path>
        <path d="M47.007 119.369a1.8 1.8 0 0 1-.98 2.351l-6.476 2.667a1.8 1.8 0 1 1-1.371-3.331l6.476-2.667a1.801 1.801 0 0 1 2.351.98z" fill="#fff7f2" data-color="3"></path>
    </g>
</svg>