<svg preserveAspectRatio="xMidYMid meet" data-bbox="31.93 18.293 136.14 163.402" viewBox="31.93 18.293 136.14 163.402" height="200" width="200" xmlns="http://www.w3.org/2000/svg" data-type="color" role="presentation" aria-hidden="true" aria-labelledby="svgcid-mkhoqr-8nsxx6"><defs><style>#comp-kukyxwlr svg [data-color="1"] {fill: #FFC098;}
#comp-kukyxwlr svg [data-color="2"] {fill: #414581;}
#comp-kukyxwlr svg [data-color="3"] {fill: #FFF9F5;}</style></defs><title id="svgcid-mkhoqr-8nsxx6"></title>
    <g>
        <path d="M165.79 112.753c-2.049-7.856-10.077-34.158-45.687-47.651 0 0-28.168-14.7-63.449 8.198-13.649 8.858-20.286 23.658-22.544 35.866-4.143 22.393 7.582 44.103 23.057 52.945 0 0 5.807-12.468 24.082-5.807 0 0 16.225 4.782 12.468 21.691 0 0 13.493 8.027 44.577-5.636 31.083-13.663 29.545-51.749 27.496-59.606zm-65.072 10.931c-14.176-3.757-12.639-9.223-12.639-9.223 22.544-12.126 27.156 10.077 27.156 10.077s-.341 2.903-14.517-.854z" fill="#ffc098" data-color="1"></path>
        <path d="M106.158 181.695c-8.66 0-12.816-2.366-13.126-2.55l-.832-.495.21-.945c3.434-15.456-10.93-19.934-11.542-20.116-16.911-6.16-22.272 4.63-22.491 5.093l-.62 1.303-1.254-.711c-14.803-8.458-28.143-30.382-23.709-54.35 1.374-7.426 6.378-25.872 23.132-36.746 18.536-12.03 35.124-13.657 45.778-12.897 11.1.787 18.103 4.172 18.943 4.597 24.174 9.181 40.665 26.416 46.437 48.537 1.877 7.195 4.517 46.765-28.253 61.168-14.482 6.367-25.238 8.112-32.673 8.112zm-10.922-4.468c3.337 1.35 16.782 5.22 42.519-6.092 30.647-13.471 28.425-51.59 26.74-58.043-5.553-21.281-21.486-37.879-44.866-46.738l-.144-.064c-.274-.142-27.942-14.038-62.103 8.133-15.883 10.308-20.647 27.902-21.957 34.987-4.098 22.151 7.743 42.432 21.291 50.876 2.198-3.188 9.405-10.915 24.99-5.237.093.025 16.618 5.107 13.53 22.178zm16.581-50.292c-2.694 0-6.52-.655-11.441-1.958-6.817-1.807-11.158-4.272-12.902-7.327-1.094-1.917-.727-3.389-.681-3.551l.154-.547.5-.269c7.514-4.041 13.981-4.851 19.223-2.408 7.766 3.62 9.794 12.995 9.877 13.392l.043.213-.025.216c-.03.253-.184.9-.972 1.436-.79.536-2.052.803-3.776.803zM89.395 115.28c.216 1.19 1.736 4.479 11.666 7.11 8.743 2.318 11.747 1.97 12.672 1.684-.614-2.126-2.81-8.274-8.21-10.781-4.284-1.987-9.704-1.32-16.128 1.987z" fill="#4d4f99" data-color="2"></path>
        <path d="M165.021 110.277c-2.391-8.71-9.65-30.23-42.1-44.918 0 0-16.567-9.052-38.257-4.611C62.973 65.189 47.858 77.4 46.236 81.499c-1.623 4.099-3.245 10.248-3.245 19.556 0 9.308.769 11.272-.683 17.677-1.452 6.405-2.989 11.358 1.366 13.236 4.355 1.879 3.928-3.587 6.576-6.661 2.647-3.074 2.391 8.155 8.113 8.326 5.722.171 12.382-6.106 23.057-2.092 10.674 4.014 15.03 17.207 17.677 19.001 2.647 1.793 7.088-2.69 13.151 1.238s2.05 7.344 9.735 7.344c7.686 0 8.967-4.953 10.162-5.465s-.427 7.088 6.917 6.575c7.344-.512 6.319-7.259 6.063-12.809s8.71-9.394 10.589-11.187c1.878-1.794 11.699-17.251 9.307-25.961zm-35.268-2.818c-.256 2.391 1.366 13.663-13.663 16.054s-26.473-9.991-28.095-11.87c0 0-5.807-5.295-5.124-13.407.683-8.113 7.173-8.369 10.333-7.856s3.501 4.611 6.661 9.308c3.16 4.697 5.892 2.904 7.429 2.306 1.537-.598 4.441-6.661 7.686-6.319s1.793 5.337 4.611 6.447 4.697-.128 7.429-1.409c2.733-1.281 2.989 4.355 2.733 6.746z" fill="#4d4f99" data-color="2"></path>
        <path d="M57.934 163.45a1.339 1.339 0 0 1-1.284-.967c-.071-.157-.216-.367-.393-.647-1.817-2.859-7.347-11.557.891-29.404a1.338 1.338 0 1 1 2.429 1.121c-7.625 16.522-2.857 24.024-1.062 26.849.375.591.623.98.723 1.403a1.34 1.34 0 0 1-1.304 1.645zm-1.301-1.031.009.035c-.004-.011-.006-.023-.009-.035z" fill="#4d4f99" data-color="2"></path>
        <path d="M95.766 178.522a1.338 1.338 0 0 1-1.048-2.172c.078-.099 7.781-10.017 5.109-25.323a1.338 1.338 0 0 1 2.636-.46c2.889 16.543-5.303 27.015-5.653 27.452-.264.33-.652.503-1.044.503z" fill="#4d4f99" data-color="2"></path>
        <path d="M73.6 111.602a2.306 2.306 0 0 1-.844 3.15l-7.765 4.483a2.306 2.306 0 1 1-2.306-3.994l7.765-4.483a2.306 2.306 0 0 1 3.15.844z" fill="#fff7f2" data-color="3"></path>
        <path d="M131.594 138.11a2.305 2.305 0 0 1-2.155 2.447l-8.949.568a2.305 2.305 0 1 1-.292-4.602l8.949-.568a2.306 2.306 0 0 1 2.447 2.155z" fill="#fff7f2" data-color="3"></path>
        <path d="M152.221 121.207c-.9.9-2.36.9-3.261 0l-6.34-6.34a2.307 2.307 0 0 1 3.261-3.261l6.34 6.34c.9.901.9 2.361 0 3.261z" fill="#fff7f2" data-color="3"></path>
        <path d="M143.624 85.633a2.305 2.305 0 0 1-2.458 2.142l-8.945-.614a2.305 2.305 0 1 1 .316-4.6l8.945.614a2.306 2.306 0 0 1 2.142 2.458z" fill="#fff7f2" data-color="3"></path>
        <path d="M105.007 81.639a2.305 2.305 0 0 1-2.881-1.527l-2.634-8.571a2.305 2.305 0 1 1 4.408-1.354l2.634 8.571a2.306 2.306 0 0 1-1.527 2.881z" fill="#fff7f2" data-color="3"></path>
        <path d="M97.054 52.538c-.9.9-2.36.9-3.261 0l-6.34-6.34a2.307 2.307 0 0 1 3.261-3.261l6.34 6.34c.9.9.9 2.36 0 3.261z" fill="#4d4f99" data-color="2"></path>
        <path d="M72.97 49.697a2.306 2.306 0 0 1-1.686 2.791l-8.706 2.148a2.306 2.306 0 0 1-1.105-4.477l8.706-2.148a2.306 2.306 0 0 1 2.791 1.686z" fill="#4d4f99" data-color="2"></path>
        <path d="M133.713 60.541a2.306 2.306 0 0 1-1.94-2.621l1.324-8.868a2.306 2.306 0 0 1 4.561.681l-1.324 8.868a2.306 2.306 0 0 1-2.621 1.94z" fill="#4d4f99" data-color="2"></path>
        <path d="M110.962 36.915a2.306 2.306 0 0 1-.844-3.15L114.602 26a2.306 2.306 0 1 1 3.994 2.306l-4.483 7.765a2.307 2.307 0 0 1-3.151.844z" fill="#4d4f99" data-color="2"></path>
        <path d="M69.723 30.373a2.306 2.306 0 0 1-.844-3.15l4.483-7.765a2.306 2.306 0 1 1 3.994 2.306l-4.483 7.765a2.307 2.307 0 0 1-3.15.844z" fill="#4d4f99" data-color="2"></path>
        <path d="M67.67 89.494a2.304 2.304 0 0 1-3.177.732l-7.602-4.754a2.304 2.304 0 0 1-.732-3.177 2.304 2.304 0 0 1 3.177-.732l7.602 4.754a2.306 2.306 0 0 1 .732 3.177z" fill="#fff7f2" data-color="3"></path>
    </g>
</svg>