<svg preserveAspectRatio="xMidYMid meet" data-bbox="20.904 45.017 158.843 109.986" viewBox="20.904 45.017 158.843 109.986" height="200" width="200" xmlns="http://www.w3.org/2000/svg" data-type="color" role="img" aria-labelledby="svgcid-8pq8mv-m1ahk6"><defs><style>#comp-kul0hdhv svg [data-color="1"] {fill: #FFC098;}
#comp-kul0hdhv svg [data-color="2"] {fill: #414581;}</style></defs><title id="svgcid-8pq8mv-m1ahk6">Homepage</title>
    <g>
        <path d="M137.276 49.734c-22.362-2.354-34.524-6.67-62.772 2.354S31.741 81.119 28.603 87.004c-3.138 5.885-7.846 19.224-6.669 22.362 0 0 10.593-1.569 14.908 0 4.316 1.569 10.985 16.085 14.908 17.654 3.923 1.569 10.985 2.746 15.693-1.569 4.708-4.315 13.339-10.593 20.793-9.416 7.454 1.177 10.593 5.885 12.554 13.339 1.962 7.454 5.1 11.377 10.593 10.593 5.493-.785 5.493-8.631 5.493-15.693 0-7.062.392-20.008 6.669-21.185 6.277-1.177 7.847 1.961 12.947 3.531 5.1 1.569 13.339 1.569 16.478-7.454 3.139-9.023-.785-14.908 5.885-15.693 6.669-.785 5.885 5.493 9.023 5.885 3.138.392 9.023-4.708 8.631-9.808-.393-5.1-16.87-27.463-39.233-29.816zM98.409 92.563c-14.478 2.437-26.933.151-27.818-5.106-.885-5.257 10.135-11.495 24.613-13.932 14.478-2.438 26.933-.152 27.818 5.106.885 5.257-10.135 11.495-24.613 13.932z" fill="#ffc098" data-color="1"></path>
        <path d="M110.195 141.826c-7.618.001-9.932-8.795-10.725-11.808-2.064-7.846-5.243-11.277-11.337-12.239-7.673-1.216-16.899 6.613-19.546 9.04-4.904 4.496-12.133 3.909-17.263 1.856-2.33-.932-4.835-4.67-7.737-8.998-2.388-3.563-5.361-7.998-7.127-8.64-3.253-1.186-10.592-.535-13.146-.186a1.507 1.507 0 0 1-1.69-1.283 1.5 1.5 0 0 1 1.283-1.689c.405-.054 9.968-1.336 14.578.338 2.688.978 5.557 5.258 8.594 9.789 2.179 3.251 4.891 7.297 6.358 7.884 4.087 1.634 10.239 2.278 14.122-1.282 3.713-3.404 13.292-11.181 22.041-9.792 9.167 1.447 12.106 8.111 13.771 14.438 2.42 9.195 6.046 9.906 8.931 9.489 3.895-.557 4.204-6.498 4.204-14.208 0-9.092.818-21.332 7.894-22.66 4.684-.878 7.108.419 9.674 1.793 1.188.637 2.415 1.295 3.99 1.779 2.619.807 11.408 2.716 14.619-6.513 1.15-3.306 1.297-6.225 1.415-8.571.193-3.853.377-7.492 5.712-8.119 5.021-.593 6.778 2.311 7.931 4.232.649 1.082 1.005 1.598 1.453 1.654.847.104 2.298-.387 3.691-1.716 1.642-1.565 2.495-3.597 2.344-5.573a1.5 1.5 0 0 1 1.38-1.611 1.512 1.512 0 0 1 1.61 1.38c.222 2.879-.968 5.786-3.264 7.975-1.91 1.82-4.201 2.763-6.134 2.521-1.946-.243-2.893-1.82-3.653-3.087-1.061-1.767-1.895-3.162-5.009-2.796-2.713.319-2.863 1.278-3.065 5.291-.127 2.537-.286 5.693-1.577 9.405-3.256 9.359-11.909 10.371-18.336 8.395-1.853-.57-3.272-1.331-4.524-2.002-2.354-1.261-4.056-2.174-7.704-1.488-3.614.678-5.446 7.31-5.446 19.711 0 7.222 0 16.209-6.78 17.179-.534.076-1.043.112-1.532.112z" fill="#4d4f99" data-color="2"></path>
        <path d="M89.794 155.003c-14.004 0-27.298-2.623-38.653-7.741-16.744-7.548-27.296-19.614-29.714-33.979-2.418-14.364 3.602-29.221 16.951-41.834 13.188-12.46 32-21.267 52.97-24.797 43.502-7.323 82.932 10.648 87.885 40.065 4.951 29.417-26.415 59.308-69.922 66.632a117.837 117.837 0 0 1-19.517 1.654zm20.983-106.996a114.2 114.2 0 0 0-18.931 1.603c-20.391 3.433-38.647 11.963-51.408 24.02-12.599 11.904-18.3 25.81-16.053 39.155 2.247 13.346 12.187 24.618 27.989 31.741 16.004 7.215 36.048 9.299 56.439 5.863 41.876-7.049 72.139-35.39 67.461-63.175-3.958-23.511-31.688-39.207-65.497-39.207z" fill="#4d4f99" data-color="2"></path>
        <path d="M87.246 95.809c-9.359 0-17.271-2.196-18.133-7.318-.541-3.211 2.046-6.613 7.285-9.578 4.797-2.715 11.387-4.875 18.558-6.083 7.169-1.207 14.104-1.324 19.525-.329 5.921 1.087 9.479 3.454 10.021 6.665 1.202 7.144-12.418 13.401-25.843 15.661-3.8.64-7.72.982-11.413.982zM106.37 74.83c-3.419 0-7.126.321-10.917.959-6.834 1.151-13.077 3.188-17.578 5.735-3.941 2.231-6.111 4.649-5.805 6.469.639 3.795 11.933 6.259 26.09 3.876 14.157-2.384 24.021-8.409 23.382-12.205-.306-1.82-3.148-3.395-7.603-4.212-2.265-.415-4.824-.622-7.569-.622z" fill="#4d4f99" data-color="2"></path>
        <path d="m78.103 94.429-2.156-2.086c.64-.662 15.991-16.12 44.046-8.949l-.742 2.906c-26.381-6.739-41.004 7.979-41.148 8.129z" fill="#4d4f99" data-color="2"></path>
    </g>
</svg>