<svg preserveAspectRatio="xMidYMid meet" data-bbox="14.239 23.817 171.52 152.364" viewBox="14.239 23.817 171.52 152.364" height="200" width="200" xmlns="http://www.w3.org/2000/svg" data-type="color" role="presentation" aria-hidden="true" aria-labelledby="svgcid-criv0r5dfwuq"><defs><style>#comp-kukybuar svg [data-color="1"] {fill: #FFC098;}
#comp-kukybuar svg [data-color="2"] {fill: #414581;}
#comp-kukybuar svg [data-color="3"] {fill: #FFF9F5;}
#comp-kukybuar svg [data-color="4"] {fill: #FFC098;}</style></defs><title id="svgcid-criv0r5dfwuq"></title>
    <g>
        <path d="M180.878 59.74c-5.652-12.717-24.223-31.49-43.804-33.711-19.581-2.22-34.518 8.882-36.335 9.286-1.817.404-14.938-10.497-32.903-9.891s-40.574 19.58-47.639 36.334c-7.065 16.754-6.056 49.86 21.397 74.89 0 0-1.413 12.112 1.211 15.14 2.624 3.028 7.469.202 10.093 2.422 2.624 2.22 1.615 8.68 4.845 8.478 3.23-.202 1.413-5.854 6.258-4.239 4.845 1.615 15.947 15.543 34.316 16.149 0 0 19.581-.404 33.105-11.91 13.525-11.506 16.553-13.323 16.553-13.323s2.221 7.267 6.863 6.863c4.643-.404 4.239-15.14 4.037-17.764-.202-2.624 16.149-12.515 21.599-30.481 5.451-17.964 6.056-35.526.404-48.243zM128.82 97.639c-9.689 13.726-28.311 24.375-28.311 24.375-1.615-1.211-6.488-3.734-21.224-16.25-14.736-12.515-9.689-22.608-8.276-25.031 1.413-2.422 4.037-3.028 10.093-3.23 6.056-.202 8.276 5.854 12.112 8.882 3.835 3.028 5.45 1.615 9.689 1.211 4.239-.404 4.037-5.45 7.671-6.258 3.633-.807 1.615 7.267 5.45 7.671 3.835.404 1.211-5.45 1.211-9.286 0-3.835 3.892-3.078 5.983-2.624 4.451.967 15.292 6.813 5.602 20.54z" fill="#ffc098" data-color="1"></path>
        <path d="m97.623 176.181-.042-.002c-13.673-.45-23.246-7.834-29.58-12.721-2.181-1.683-4.065-3.136-5.184-3.509-1.365-.454-1.4-.367-1.999 1.071-.481 1.158-1.288 3.098-3.661 3.246-3.115.198-3.884-2.91-4.446-5.178-.35-1.415-.747-3.019-1.519-3.672-.75-.635-2.049-.593-3.556-.547-2.138.065-4.808.149-6.71-2.046-2.661-3.07-2.005-12.274-1.675-15.553-28.086-26.076-28.103-59.75-21.196-76.128 7.052-16.723 30.012-36.66 49.043-37.301 13.585-.446 24.625 5.53 29.934 8.408 1.084.587 2.296 1.244 2.84 1.446a58.98 58.98 0 0 0 1.563-.85c5.063-2.81 18.523-10.273 35.132-8.389 20.391 2.312 39.276 21.604 45.071 34.64 5.608 12.62 5.489 30.145-.336 49.346-3.821 12.599-12.702 21.218-18.008 26.367-1.492 1.448-3.174 3.08-3.514 3.726.144 2.104 1.064 18.698-5.491 19.268-4.062.361-6.567-3.512-7.727-5.991-2.006 1.49-6.307 4.854-14.802 12.08-13.795 11.736-33.274 12.27-34.097 12.287l-.04.002zm-35.836-19.6c.584 0 1.255.11 2.03.368 1.627.542 3.51 1.995 6.116 4.005 6.005 4.632 15.077 11.629 27.705 12.062.966-.031 19.434-.776 32.076-11.532 13.469-11.459 16.636-13.398 16.764-13.475l1.734-1.041.592 1.935c.017.058 1.933 6.051 5.214 5.75 1.679-.146 3.238-7.74 2.598-16.067-.122-1.58 1.319-2.979 4.478-6.045 5.087-4.937 13.601-13.199 17.186-25.016 5.604-18.475 5.771-35.218.471-47.144-5.348-12.033-23.573-30.631-42.536-32.782-15.629-1.773-28.422 5.336-33.241 8.012-1.442.8-2.049 1.13-2.573 1.246-1.062.237-2.178-.368-4.873-1.827-5.453-2.955-15.614-8.468-28.321-8.027-14.693.495-38.09 16.053-46.236 35.369-6.606 15.666-6.463 48.063 21.006 73.107l.599.547-.094.805c-.552 4.743-.658 12.198.835 13.922.856.987 2.168 1.022 4.223.956 1.884-.057 4.02-.125 5.696 1.294 1.553 1.314 2.081 3.445 2.546 5.326.31 1.253.692 2.777 1.179 2.781.307-.02.448-.125.938-1.304.464-1.119 1.339-3.225 3.888-3.225z" fill="#4d4f99" data-color="2"></path>
        <path d="M167.578 94.258c2.826-1.413 14.534-24.223 14.13-31.49-.404-7.267-23.416-36.335-47.236-37.142-23.82-.808-32.298 9.084-34.316 10.295-2.019 1.211-15.14-15.14-38.959-9.286-23.82 5.854-41.583 29.27-41.381 38.354 0 0 4.927 12.597 11.708 19.379 1.615 1.615-1.211 15.543 1.413 21.801 2.624 6.258 8.276 11.708 12.112 15.543s3.835 10.497 10.901 10.497 5.854.404 8.882 5.047c3.028 4.643 6.661-.404 9.891 2.422s-1.413 5.047 2.624 8.68c4.037 3.634 9.689 8.074 17.562 8.074 7.873 0-2.826 12.717 8.478 13.121 11.304.404 4.643-14.736 7.469-20.59 2.826-5.854 8.478-5.248 11.91-2.826 3.432 2.422 5.652 2.826 9.487-2.826s12.717-8.478 17.764-11.91c5.047-3.432 7.469-7.671 10.295-13.525 2.826-5.854-.202 5.652 5.047 2.624 5.248-3.028 2.22-15.947-1.009-23.012-3.232-7.065.402-1.817 3.228-3.23zm-39.161 2.826c-9.689 13.726-27.655 24.223-27.655 24.223-1.615-1.211-6.661-3.028-21.397-15.543-14.736-12.515-9.689-22.608-8.276-25.031 1.413-2.422 4.037-3.028 10.093-3.23 6.056-.202 8.276 5.854 12.112 8.882 3.835 3.028 5.45 1.615 9.689 1.211 4.239-.404 4.037-5.45 7.671-6.258 3.633-.807 1.615 7.267 5.45 7.671 3.835.404 1.211-5.45 1.211-9.286 0-3.835 3.471-2.632 5.097-2.877 4.692-.705 15.694 6.511 6.005 20.238z" fill="#4d4f99" data-color="2"></path>
        <path d="M133.044 83.843s1.328-19.259-12.55-22.438c-2.257-.517-9.841.151-12.717 4.542-2.877 4.39-1.968 8.024-8.932 7.116-6.964-.908-5.299-6.056-9.084-9.992-3.086-3.21-8.226-2.927-11.355-2.12-3.022.78-8.579 6.914-10.244 13.121-1.665 6.207-.47 6.895.287 14.01 0 0 2.06-7.122 5.012-8.863 3.794-2.237 9.387-2.624 13.02.555s5.627 8.554 10.699 8.705 7.166-.479 8.377-1.388c1.211-.908 2.145-4.037 4.643-4.189s2.044 1.817 2.725 4.39 3.278 2.935 4.996 2.574c2.877-.606 1.514-7.721-.303-11.229-.756-1.459 3.936-1.741 5.652-1.691 3.041.092 8.462 1.245 9.774 6.897z" fill="#ffc098" data-color="1"></path>
        <path d="m67.727 96.242-.851-7.992a72.702 72.702 0 0 0-.667-4.708c-.533-3.188-.854-5.113.424-9.879 1.805-6.729 7.699-13.293 11.376-14.243 1.962-.505 8.687-1.817 12.89 2.555 1.588 1.652 2.323 3.44 2.971 5.018 1.036 2.522 1.661 4.044 5.177 4.502 4.009.521 4.417-.371 5.62-3.026.458-1.011.978-2.156 1.785-3.388 3.359-5.127 11.766-5.817 14.393-5.217 15.022 3.441 13.789 23.882 13.774 24.088l-.728 10.55-2.39-10.301c-1.145-4.932-6.173-5.609-8.281-5.672-1.27-.037-2.842.109-3.759.321 1.35 3.119 2.377 8.005 1.134 10.628-.627 1.323-1.625 1.783-2.352 1.937-2.677.562-5.962-.36-6.851-3.716-.181-.682-.286-1.304-.379-1.854-.083-.494-.196-1.163-.316-1.367-.018.006-.087-.002-.223-.002-.052 0-.112.001-.183.005-.83.05-1.429.844-2.247 2.048-.478.703-.929 1.367-1.542 1.827-1.784 1.337-4.585 1.846-9.374 1.703-4.185-.125-6.614-3.154-8.757-5.827-.968-1.207-1.882-2.347-2.936-3.269-3.125-2.734-7.988-2.263-11.175-.383-1.75 1.033-3.564 5.419-4.296 7.941l-2.237 7.721zm42.729-14.928c3.002 0 3.424 2.493 3.679 4.004.086.506.175 1.03.317 1.572.511 1.925 2.875 1.488 3.143 1.431.783-.442.519-5.286-1.382-8.954-.369-.713-.344-1.499.068-2.155 1.174-1.867 5.685-1.884 7.034-1.844 1.438.042 5.043.385 7.858 2.607-.755-5.511-3.223-13.239-11.033-15.028-1.895-.438-8.65.217-11.042 3.867-.673 1.027-1.118 2.01-1.549 2.961-1.325 2.922-2.576 5.683-8.91 4.856-5.335-.696-6.588-3.746-7.693-6.437-.594-1.445-1.154-2.81-2.325-4.028-2.396-2.491-6.645-2.504-9.82-1.684-2.167.56-7.506 6.012-9.112 12-.979 3.65-.904 5.153-.517 7.584.917-1.727 2.093-3.388 3.485-4.208 4.165-2.458 10.608-2.997 14.864.727 1.263 1.105 2.309 2.409 3.32 3.67 1.964 2.449 3.66 4.563 6.385 4.645 5.125.155 6.67-.539 7.382-1.072.191-.144.542-.66.823-1.074.888-1.306 2.229-3.279 4.672-3.427.121-.01.239-.013.353-.013z" fill="#4d4f99" data-color="2"></path>
        <path d="M61.197 119.692a2.725 2.725 0 0 1-2.725-2.725V106.37a2.725 2.725 0 1 1 5.45 0v10.598a2.725 2.725 0 0 1-2.725 2.724z" fill="#fff7f2" data-color="3"></path>
        <path d="M56.313 78.347a2.725 2.725 0 0 1-3.844.273l-8.006-6.944a2.725 2.725 0 1 1 3.571-4.117l8.006 6.944a2.725 2.725 0 0 1 .273 3.844z" fill="#fff7f2" data-color="3"></path>
        <path d="M120.941 134.3a2.725 2.725 0 0 1-1.413-3.585l4.224-9.72a2.725 2.725 0 0 1 4.998 2.172l-4.224 9.72a2.724 2.724 0 0 1-3.585 1.413z" fill="#fff7f2" data-color="3"></path>
        <path d="M152.479 94.855a2.725 2.725 0 0 1-3.723.997l-9.178-5.299a2.725 2.725 0 0 1 2.726-4.72l9.178 5.299a2.726 2.726 0 0 1 .997 3.723z" fill="#fff7f2" data-color="3"></path>
        <path d="M118.959 58.509a2.726 2.726 0 0 1-3.545-1.512l-3.953-9.833a2.726 2.726 0 0 1 5.057-2.033l3.953 9.833a2.725 2.725 0 0 1-1.512 3.545z" fill="#fff7f2" data-color="3"></path>
        <path d="M64.17 44.081a2.724 2.724 0 0 1-.382-3.835l6.713-8.2a2.724 2.724 0 0 1 3.835-.382 2.724 2.724 0 0 1 .382 3.835l-6.713 8.2a2.726 2.726 0 0 1-3.835.382z" fill="#fff7f2" data-color="3"></path>
        <path d="M160.326 47.878a2.725 2.725 0 0 1-1.701 3.458l-10.032 3.416a2.725 2.725 0 0 1-1.757-5.159l10.032-3.416a2.724 2.724 0 0 1 3.458 1.701z" fill="#fff7f2" data-color="3"></path>
        <path d="M63.922 140.854c-.424 0-.848-.17-1.159-.505-3.41-3.673-1.143-8.51 1.698-13.56a1.582 1.582 0 0 1 2.757 1.55c-2.762 4.91-3.921 7.936-2.137 9.856a1.582 1.582 0 0 1-1.159 2.659z" fill="#ffbc91" data-color="4"></path>
        <path d="M160.612 123.898a1.581 1.581 0 0 1-1.566-1.379c-.105-.815-.093-2.104-.078-3.734.044-4.62.126-13.219-3.003-15.097a1.58 1.58 0 0 1-.542-2.169 1.578 1.578 0 0 1 2.169-.542c4.682 2.809 4.596 11.853 4.539 17.837-.014 1.449-.025 2.701.052 3.3a1.583 1.583 0 0 1-1.571 1.784z" fill="#ffbc91" data-color="4"></path>
        <path d="M166.668 100.28a1.582 1.582 0 0 1-1.566-1.379c-.239-1.851-1.192-3.014-2.923-5.126a80.27 80.27 0 0 1-2.224-2.808 1.581 1.581 0 0 1 2.529-1.898c.782 1.042 1.504 1.923 2.141 2.701 1.892 2.309 3.258 3.976 3.613 6.725a1.583 1.583 0 0 1-1.57 1.785z" fill="#ffbc91" data-color="4"></path>
        <path d="M147.591 152.208a1.58 1.58 0 0 1-1.562-1.354c-.237-1.626-.765-3.259-2.661-6.368a1.58 1.58 0 1 1 2.699-1.647c2.17 3.557 2.805 5.594 3.091 7.56a1.581 1.581 0 0 1-1.567 1.809z" fill="#4d4f99" data-color="2"></path>
    </g>
</svg>